<svg width="92" height="78" viewBox="0 0 92 78" fill="none" xmlns="http://www.w3.org/2000/svg">
<path d="M37.311 55.1777C38.7218 55.1777 39.8655 54.0341 39.8655 52.6233C39.8655 51.2125 38.7218 50.0688 37.311 50.0688C35.9003 50.0688 34.7566 51.2125 34.7566 52.6233C34.7566 54.0341 35.9003 55.1777 37.311 55.1777Z" fill="#C6A557"/>
<path d="M30.1548 55.1777C31.5655 55.1777 32.7092 54.0341 32.7092 52.6233C32.7092 51.2125 31.5655 50.0688 30.1548 50.0688C28.744 50.0688 27.6003 51.2125 27.6003 52.6233C27.6003 54.0341 28.744 55.1777 30.1548 55.1777Z" fill="#C6A557"/>
<path d="M23.0005 55.1777C24.4113 55.1777 25.5549 54.0341 25.5549 52.6233C25.5549 51.2125 24.4113 50.0688 23.0005 50.0688C21.5897 50.0688 20.446 51.2125 20.446 52.6233C20.446 54.0341 21.5897 55.1777 23.0005 55.1777Z" fill="#C6A557"/>
<path d="M86.3776 0H37.311C34.2087 0.00610936 31.695 2.51885 31.6887 5.62025V24.5251H5.62223C2.51975 24.5313 0.00610936 27.0438 0 30.1452V61.8627C0.00610936 64.9641 2.51975 67.4767 5.62115 67.4829L13.2663 67.4555V75.9327C13.2663 76.5329 13.618 77.0788 14.1649 77.3271C14.7117 77.5765 15.3548 77.4815 15.8076 77.0869L26.6544 67.4493L54.6889 67.484C57.7912 67.4779 60.3048 64.9652 60.3111 61.8638V42.9413L65.2166 42.9454L76.1911 52.5184C76.6439 52.9141 77.2858 53.0081 77.8338 52.7596C78.3806 52.5102 78.7324 51.9654 78.7324 51.3641V42.9512L86.3839 42.9154H86.3778C89.4801 42.9093 91.9937 40.3976 92 37.2962V5.62008C91.9935 2.51885 89.4799 0.00610936 86.3776 0ZM57.2442 61.8636C57.2442 62.5658 56.961 63.1976 56.4929 63.6678C56.0227 64.1348 55.3911 64.4182 54.6887 64.4182H54.6867L26.0778 64.3844C25.712 64.3855 25.3479 64.5215 25.0719 64.7627L16.3341 72.5611V65.931C16.3341 65.0897 15.6502 64.4017 14.8089 64.3977L5.6305 64.4193H5.62223C4.92001 64.4193 4.28823 64.1361 3.81799 63.6689C3.34973 63.1967 3.06672 62.5649 3.06672 61.8638V30.1454C3.06672 29.4432 3.34991 28.8114 3.81799 28.3422C4.28823 27.874 4.91983 27.591 5.62223 27.5899H54.6887C55.3909 27.591 56.0227 27.874 56.4929 28.3422C56.9612 28.8125 57.2442 29.4441 57.2442 30.1454V61.8636V61.8636ZM88.1818 39.0988C87.7116 39.5671 87.08 39.8492 86.3776 39.8501H86.3704L77.192 39.8931C76.3496 39.8961 75.6657 40.5841 75.6657 41.4253V47.9919L66.8 40.2578C66.5229 40.0176 66.1612 39.8805 65.7941 39.8805L60.3109 39.8744V30.1449C60.3048 27.0435 57.7912 24.5309 54.6887 24.5246H34.7554V5.62008C34.7554 4.91786 35.0386 4.28608 35.5067 3.81691C35.977 3.34865 36.6086 3.06564 37.311 3.06456H86.3774C87.0796 3.06564 87.7114 3.34865 88.1817 3.81691C88.6499 4.28608 88.9329 4.91876 88.9329 5.62008V37.2957H88.9331C88.9331 37.9979 88.6499 38.6286 88.1818 39.0988Z" fill="#C6A557"/>
</svg>
