<svg width="102" height="76" viewBox="0 0 102 76" fill="none" xmlns="http://www.w3.org/2000/svg">
<path d="M63.3333 0C42.3808 0 25.3333 17.0476 25.3333 38C25.3333 58.9524 42.3808 76 63.3333 76C84.2857 76 101.333 58.9524 101.333 38C101.333 17.0476 84.2857 0 63.3333 0ZM63.3333 71.7778C44.7085 71.7778 29.5554 56.6248 29.5554 38C29.5554 19.3753 44.7085 4.22216 63.3333 4.22216C81.958 4.22216 97.1111 19.3753 97.1111 38C97.1111 56.6248 81.958 71.7778 63.3333 71.7778Z" fill="#C6A557"/>
<path d="M4.22216 38C4.22216 30.0111 7.08166 22.2492 12.2728 16.1446C13.0275 15.2582 12.9202 13.9242 12.0316 13.1698C11.1492 12.4173 9.81112 12.5182 9.05667 13.411C3.21615 20.2762 0 29.0092 0 38C0 46.9907 3.21615 55.7238 9.05667 62.5892C9.47526 63.082 10.069 63.3333 10.6647 63.3333C11.1492 63.3333 11.6357 63.1685 12.0316 62.8302C12.9202 62.0756 13.0273 60.7418 12.2728 59.8553C7.08166 53.7508 4.22216 45.9889 4.22216 38Z" fill="#C6A557"/>
<path d="M16.8889 38C16.8889 30.0111 19.7484 22.2492 24.9396 16.1446C25.6942 15.2582 25.5869 13.9242 24.6983 13.1698C23.8138 12.4173 22.4759 12.5182 21.7234 13.411C15.8829 20.2762 12.6667 29.0092 12.6667 38C12.6667 46.9907 15.8829 55.7238 21.7234 62.5892C22.142 63.082 22.7358 63.3333 23.3315 63.3333C23.816 63.3333 24.3025 63.1685 24.6983 62.8302C25.5869 62.0756 25.694 60.7418 24.9396 59.8553C19.7484 53.7508 16.8889 45.9889 16.8889 38Z" fill="#C6A557"/>
<path d="M67.3473 39.0288C67.4346 38.6909 67.5555 38.3648 67.5555 38C67.5555 36.4579 66.6829 35.1641 65.4444 34.427V14.7779C65.4444 13.6109 64.5001 12.6667 63.3332 12.6667C62.1663 12.6667 61.222 13.6109 61.222 14.7779V34.427C59.9835 35.1641 59.1108 36.458 59.1108 38C59.1108 40.3275 61.0055 42.2222 63.333 42.2222C63.6976 42.2222 64.0239 42.1012 64.3618 42.014L74.507 52.1592C74.9192 52.5714 75.4595 52.7777 75.9997 52.7777C76.5398 52.7777 77.0799 52.5714 77.4924 52.1592C78.3171 51.3345 78.3171 49.9985 77.4924 49.174L67.3473 39.0288Z" fill="#C6A557"/>
</svg>
