<svg width="53" height="53" viewBox="0 0 53 53" fill="none" xmlns="http://www.w3.org/2000/svg">
<path d="M50.073 0H2.92525C1.31078 0 0 1.30816 0 2.92525V50.073C0 51.6901 1.31078 53 2.92525 53H28.3082V32.4753H21.4018V24.4754H28.3082V18.576C28.3082 11.7315 32.4875 8.00253 38.5946 8.00253C41.5224 8.00253 44.0331 8.22158 44.7653 8.3167V15.471L40.5293 15.4727C37.2087 15.4727 36.5682 17.0514 36.5682 19.3667V24.4727H44.4904L43.4546 32.4718H36.5673V52.9974H50.0721C51.6884 52.9974 53 51.6857 53 50.073V2.9235C52.9991 1.30816 51.6892 0 50.073 0Z" fill="white"/>
</svg>
