<svg width="91" height="69" viewBox="0 0 91 69" fill="none" xmlns="http://www.w3.org/2000/svg">
<path d="M86.1406 0H4.85939C2.18038 0 0 2.16859 0 4.83503V54.1505C0 56.8164 2.18038 58.9855 4.85939 58.9855H11.5653L16.9344 66.8807C18.3062 68.8982 21.072 69.5954 23.2396 68.4474C23.8445 68.1267 24.3748 67.6771 24.7945 67.1388L31.1642 58.9855H66.7198C69.022 58.9855 69.0253 55.4176 66.7198 55.4176H30.2871C29.734 55.4176 29.2109 55.6717 28.8714 56.1059L21.9635 64.9486C21.4399 65.6187 20.3814 65.5832 19.9045 64.8811L14.0022 56.2017C13.6688 55.7111 13.1123 55.4176 12.5174 55.4176H4.85939C4.15764 55.4176 3.58611 54.8488 3.58611 54.1505V4.83503C3.58611 4.13671 4.15764 3.56798 4.85939 3.56798H86.1406C86.8424 3.56798 87.4133 4.13671 87.4133 4.83503V54.1505C87.4133 54.8488 86.8424 55.4176 86.1406 55.4176H81.1516C78.8543 55.4176 78.8499 58.9855 81.1516 58.9855H86.1406C88.8196 58.9855 91 56.8164 91 54.1505V4.83503C91 2.16859 88.8196 0 86.1406 0V0Z" fill="#C6A557"/>
<path d="M34.6601 15.3857C36.4441 15.3857 36.4492 12 34.6601 12H19.706C18.908 12 18 12.456 18 13.3554V41.6687C18 43.4449 21.7526 43.4426 21.7526 41.6687V29.0367H28.2877C30.0522 29.0367 30.0465 25.9039 28.2877 25.9039H21.7526V15.3857H34.6601Z" fill="#C6A557"/>
<path d="M33.673 42.5408C34.4703 43.0635 36.0556 43.324 36.4111 42.0815L38.1692 35.7901H48.7614L50.5261 42.1065C51.0352 43.8095 54.2831 42.8496 53.9801 41.1385L45.6536 12.3774C45.1357 10.5454 41.872 10.5396 41.3536 12.3675L33.0599 41.0094C32.8663 41.6234 33.1605 42.2048 33.673 42.5408C34.123 42.8362 33.2092 42.2373 33.673 42.5408C34.4703 43.0635 33.2092 42.2373 33.673 42.5408V42.5408ZM39.0645 32.5871L43.4815 16.7787L47.8711 32.5871H39.0645Z" fill="#C6A557"/>
<path d="M66.0922 46.6415C66.9503 47.4403 68.3508 46.8185 68.3508 45.6215V42.4624C70.6678 42.2819 72.5369 41.4338 73.9083 39.9411C75.2959 38.4294 76 36.1643 76 33.2092V20.4238C76 17.212 75.1687 14.8242 73.53 13.3258C70.1467 10.2354 63.8259 10.2137 60.4488 13.3269C58.8241 14.8242 58 17.212 58 20.4238V33.2092C58 36.1935 58.7041 38.4661 60.0922 39.9629C61.4636 41.4407 63.3461 42.2825 65.6905 42.4624V45.6215C65.6794 46.0232 65.8138 46.3636 66.0922 46.6415C66.2998 46.8357 65.8808 46.4449 66.0922 46.6415C66.4973 47.0185 65.8256 46.3939 66.0922 46.6415C66.9503 47.4403 65.8256 46.3939 66.0922 46.6415V46.6415ZM67.9474 35.1999C67.0982 34.4595 65.6905 35.0096 65.6905 36.2015V39.0403C63.0113 38.5641 61.6528 36.6227 61.6528 33.2694V20.4428C61.6528 16.4339 63.3958 14.485 66.9799 14.485C70.5016 14.485 72.3478 16.996 72.3478 20.4428V33.2694C72.3478 36.6508 71.0026 38.5779 68.3508 38.9996V36.2021C68.3508 35.7689 68.1962 35.4096 67.8715 35.1346C67.9234 35.1781 67.9741 35.2228 68.0249 35.2681C67.8096 35.075 67.8246 35.0927 67.9474 35.1999C67.5702 34.8704 68.04 35.2807 67.9474 35.1999C67.5245 34.8314 68.2152 35.4342 67.9474 35.1999V35.1999Z" fill="#C6A557"/>
<path d="M74.4999 55C73.6964 55 73.0108 55.672 73.0001 56.4764C72.9899 57.3089 73.6731 57.9991 74.5032 58C75.3313 58.0014 76.0174 57.2944 75.9997 56.4667C75.9834 55.6678 75.2964 55 74.4999 55V55Z" fill="#C6A557"/>
</svg>
