<svg width="102" height="96" viewBox="0 0 102 96" fill="none" xmlns="http://www.w3.org/2000/svg">
<path d="M49.6646 35.5742C50.3221 36.2407 51.4154 36.106 51.915 35.3013L61.7538 19.4502C62.2049 18.7236 62.0186 17.7439 61.338 17.2623C60.6582 16.7815 59.7404 16.9804 59.2893 17.7061L50.423 31.9907L45.4963 26.9969C44.9042 26.3969 43.9688 26.4232 43.406 27.0552C42.8439 27.6872 42.8686 28.6859 43.4606 29.2858C43.4599 29.2858 49.6592 35.5693 49.6646 35.5742V35.5742Z" fill="#C6A557"/>
<path d="M50.3238 57.8017C50.6054 57.9313 50.917 58 51.227 58H51.2393C51.5547 57.9985 51.8708 57.9259 52.1532 57.7901C74.5582 47.0762 78.3552 23.9602 78.9845 17.1306C79.1288 15.5712 78.2555 14.119 76.812 13.5172C72.3519 11.6552 69.3199 7.49161 68.8994 2.65127C68.7697 1.16128 67.5035 0 66.0117 0H65.994L35.8092 0.178243C34.2875 0.186731 33.0512 1.34955 32.9346 2.88275C32.5631 7.72464 29.5757 11.9184 25.1378 13.8273C23.7089 14.4415 22.8571 15.9014 23.0198 17.4601C23.7289 24.282 27.7953 47.3525 50.3238 57.8017V57.8017ZM26.2966 16.5511C31.7382 14.2116 35.404 9.07497 35.8699 3.14047L65.9679 2.963C66.5028 8.88438 70.2208 13.974 75.6824 16.2533C75.9264 16.3559 76.0745 16.5982 76.0507 16.8575C75.4598 23.258 71.9244 44.8393 51.2216 54.9529C30.3999 45.0855 26.6158 23.5458 25.9497 17.1522C25.9229 16.8937 26.0625 16.6522 26.2966 16.5511Z" fill="#C6A557"/>
<path d="M70.0623 30.1093C69.2894 29.8062 68.4045 30.1555 68.0851 30.8871C64.5857 38.9154 59.046 45.0191 51.6151 49.0362C44.1266 45.0968 38.5064 39.0446 34.9084 31.0417C34.5804 30.3138 33.6907 29.9749 32.9218 30.2847C32.152 30.5945 31.7939 31.4366 32.1213 32.1645C36.0481 40.8975 42.2345 47.4812 50.5086 51.7312C50.8572 51.9112 51.2389 52 51.6198 52C52.0102 52 52.3998 51.9067 52.7547 51.7193C60.9665 47.3827 67.0661 40.7415 70.8849 31.9801C71.2043 31.2485 70.836 30.4109 70.0623 30.1093Z" fill="#C6A557"/>
<path d="M9.4996 77C6.46765 77 4 79.2427 4 82C4 84.7572 6.46765 87 9.4996 87C12.5323 87 15 84.7572 15 82C15 79.2427 12.5332 77 9.4996 77V77ZM9.4996 84.1736C8.18157 84.1736 7.10885 83.199 7.10885 82C7.10885 80.8017 8.18157 79.8264 9.4996 79.8264C10.8184 79.8264 11.8911 80.8017 11.8911 82C11.8911 83.199 10.8184 84.1736 9.4996 84.1736Z" fill="#C6A557"/>
<path d="M100.928 61.9331C99.0133 59.081 95.1573 58.3254 92.3332 60.2483L72.8004 73.4983L68.6309 73.2608L68.5242 72.1787C68.1087 67.9408 64.9126 64.5643 60.7524 63.968C60.7259 63.9641 60.7002 63.9609 60.6738 63.9585L39.6266 62.0892C38.9146 61.9765 36.6352 61.3131 30.3723 57.6723C27.1171 55.7802 23.4494 54.7122 19.7234 54.5671V50.6053C19.7234 48.6169 18.1281 47 16.1663 47H3.55714C1.59608 47 0 48.6177 0 50.6053V89.6247C0 91.6123 1.59608 93.23 3.55714 93.23H16.1663C18.1273 93.23 19.7234 91.6123 19.7234 89.6247V88.5496L38.1216 95.6112C38.1621 95.6269 39.6562 96.1932 42.4032 95.9306C42.411 95.9298 72.9732 91.464 72.9732 91.464C72.981 91.4632 72.988 91.4616 72.9958 91.4601C75.6074 91.0381 78.0704 89.9189 80.1194 88.2255C80.1381 88.2097 80.156 88.1939 80.1739 88.1781L99.9175 70.1801C102.244 68.086 102.679 64.5406 100.928 61.9331V61.9331ZM97.9261 67.9219L78.2035 85.9011C76.5708 87.2427 74.6113 88.13 72.5351 88.4676L41.9877 92.931C41.9807 92.9318 41.9706 92.9334 41.9612 92.935C41.9566 92.9358 41.9511 92.9366 41.9464 92.9374C41.0328 93.0833 40.0811 93.0218 39.1169 92.7544L19.7234 85.3111V68.0166C19.7234 67.1797 19.0542 66.5022 18.2293 66.5022C17.4036 66.5022 16.7352 67.1797 16.7352 68.0166V89.6247C16.7352 89.9425 16.4799 90.2012 16.1663 90.2012H3.55714C3.24353 90.2012 2.98828 89.9425 2.98828 89.6247V50.6053C2.98828 50.2874 3.24353 50.0287 3.55714 50.0287H16.1663C16.4799 50.0287 16.7352 50.2874 16.7352 50.6053V61.1759C16.7352 62.0127 17.4044 62.6903 18.2293 62.6903C19.055 62.6903 19.7234 62.0119 19.7234 61.1759V57.599C22.9288 57.7425 26.0821 58.6701 28.8852 60.3004C36.4391 64.6913 38.5488 64.9941 39.2422 65.0935C39.2687 65.0975 39.2943 65.0998 39.3208 65.103L60.3703 66.9723C63.1453 67.3879 65.2729 69.6469 65.5508 72.4784L65.6301 73.2853L37.4492 75.0489C37.4298 75.0473 37.4103 75.0457 37.3932 75.0442C36.4796 74.9606 35.6547 74.5228 35.0687 73.8114C34.5403 73.1686 33.5979 73.0818 32.9645 73.6181C32.3302 74.1537 32.2446 75.1088 32.7738 75.7509C33.8703 77.0838 35.4174 77.8812 37.1271 78.0611C38.05 78.1589 67.2737 76.217 67.2737 76.217L73.132 76.5507C73.4557 76.5696 73.7771 76.4797 74.0463 76.2967L93.9978 62.7636C95.4631 61.7659 97.4639 62.1571 98.4576 63.6367C99.3658 64.9902 99.1401 66.8295 97.9261 67.9219V67.9219Z" fill="#C6A557"/>
</svg>
