<svg width="53" height="53" viewBox="0 0 53 53" fill="none" xmlns="http://www.w3.org/2000/svg">
<path d="M45.2363 0H7.76367C3.48314 0 0 3.48314 0 7.76367V45.2363C0 49.5169 3.48314 53 7.76367 53H45.2363C49.5169 53 53 49.5169 53 45.2363V7.76367C53 3.48314 49.5169 0 45.2363 0ZM26.6035 40.3711C18.8977 40.3711 12.6289 34.1023 12.6289 26.3965C12.6289 18.6906 18.8977 12.4219 26.6035 12.4219C34.3094 12.4219 40.5781 18.6906 40.5781 26.3965C40.5781 34.1023 34.3094 40.3711 26.6035 40.3711ZM42.1309 15.5273C39.5624 15.5273 37.4727 13.4376 37.4727 10.8691C37.4727 8.30066 39.5624 6.21094 42.1309 6.21094C44.6993 6.21094 46.7891 8.30066 46.7891 10.8691C46.7891 13.4376 44.6993 15.5273 42.1309 15.5273Z" fill="white"/>
<path d="M42.1309 9.31641C41.274 9.31641 40.5781 10.0123 40.5781 10.8691C40.5781 11.726 41.274 12.4219 42.1309 12.4219C42.9877 12.4219 43.6836 11.726 43.6836 10.8691C43.6836 10.0123 42.9877 9.31641 42.1309 9.31641Z" fill="white"/>
<path d="M26.6035 15.5273C20.6109 15.5273 15.7344 20.4039 15.7344 26.3965C15.7344 32.3891 20.6109 37.2656 26.6035 37.2656C32.5961 37.2656 37.4727 32.3891 37.4727 26.3965C37.4727 20.4039 32.5961 15.5273 26.6035 15.5273Z" fill="white"/>
</svg>
