<svg width="81" height="74" viewBox="0 0 81 74" fill="none" xmlns="http://www.w3.org/2000/svg">
<path d="M24.9043 24.4515C24.979 28.4357 26.5911 32.1886 29.444 35.0188C32.2968 37.8488 36.0625 39.4312 40.0474 39.4749C41.9051 39.4955 43.7331 39.1852 45.4649 38.5533C46.0763 38.3306 46.3911 37.6543 46.1683 37.043C45.9456 36.4317 45.2693 36.1164 44.658 36.3395C43.1929 36.8735 41.6547 37.1376 40.0732 37.1184C33.1379 37.0425 27.3901 31.3403 27.26 24.3979C27.1659 20.8703 28.5982 17.401 31.1891 14.8797C33.7809 12.3578 37.2894 11.0222 40.823 11.2115C47.578 11.5175 53.0036 17.0564 53.175 23.8212C53.215 25.3982 52.9758 26.9442 52.4643 28.4159C52.1244 29.3932 51.1922 30.0497 50.1442 30.0497C50.1441 30.0497 50.1439 30.0497 50.1439 30.0497C48.7858 30.0497 47.6809 28.9448 47.6809 27.5866V17.8745C47.6809 17.2237 47.1535 16.6963 46.5027 16.6963C45.8518 16.6963 45.3244 17.2237 45.3244 17.8745V18.7238C43.9884 17.468 42.1925 16.6963 40.2187 16.6963C36.1041 16.6963 32.7565 20.0439 32.7565 24.1585C32.7565 28.2731 36.1041 31.6207 40.2187 31.6207C42.3494 31.6207 44.2729 30.7215 45.6341 29.2845C46.3223 31.1067 48.0837 32.4064 50.1437 32.4064H50.1442C52.1944 32.4064 54.0213 31.1136 54.69 29.1898C55.2953 27.4493 55.578 25.623 55.531 23.7614C55.3283 15.7658 48.9148 9.2193 40.9401 8.85797C36.7616 8.63206 32.6077 10.2114 29.546 13.1909C26.4847 16.1695 24.7931 20.2774 24.9043 24.4515ZM40.2188 29.2642C37.4035 29.2642 35.1131 26.9739 35.1131 24.1585C35.1131 21.3431 37.4035 19.0528 40.2188 19.0528C43.0342 19.0528 45.3246 21.3431 45.3246 24.1585C45.3246 26.9739 43.0342 29.2642 40.2188 29.2642Z" fill="#C6A557"/>
<path d="M79.9822 28.0624L46.9474 2.24977C43.1264 -0.735591 37.7767 -0.751458 33.9381 2.21175L0.461229 28.0562C0.174052 28.2759 -0.00048557 28.6293 0.000142827 28.9909V39.3594C0.000142827 40.0103 0.527525 40.5377 1.17839 40.5377C1.82925 40.5377 2.35663 40.0103 2.35663 39.3594V30.9986L31.9859 47.5497L2.35663 70.4235V44.8579C2.35663 44.2071 1.82925 43.6797 1.17839 43.6797C0.527525 43.6797 0.000142827 44.2071 0.000142827 44.8579V72.8216C-0.0102257 73.4541 0.545434 74.0108 1.17839 73.9998H79.2567C79.8853 74.0083 80.4482 73.4536 80.435 72.8216V29.1301C80.4632 28.7257 80.3088 28.3122 79.9822 28.0624ZM4.63269 71.6433L35.3783 47.9077C38.3638 45.603 42.5246 45.615 45.4964 47.9374L46.0639 48.3807C46.0643 48.381 60.8348 59.9222 60.8359 59.9231C61.349 60.3237 62.0891 60.2331 62.4898 59.7201C62.8904 59.2072 62.7996 58.4668 62.2869 58.0662L48.8975 47.6042L56.1418 43.5229C56.7086 43.2035 56.9094 42.4851 56.59 41.918C56.2707 41.351 55.5525 41.1509 54.9851 41.4698L46.8847 46.0333C43.0937 43.1158 37.8284 43.0965 34.0165 45.9846L3.31148 28.8325L35.3784 4.07683C38.3639 1.77218 42.5247 1.78428 45.4966 4.10652L77.2561 28.9226L59.639 38.8476C59.0721 39.167 58.8714 39.8854 59.1908 40.4525C59.512 41.0249 60.2391 41.217 60.7957 40.9007L78.0786 31.1639V70.4054L66.4959 61.3549C65.9831 60.9545 65.2427 61.045 64.8419 61.5579C64.4413 62.0708 64.5321 62.8112 65.0449 63.2118L75.8353 71.6432H4.63269V71.6433Z" fill="#C6A557"/>
</svg>
