<svg width="103" height="102" viewBox="0 0 103 102" fill="none" xmlns="http://www.w3.org/2000/svg">
<path d="M74.4317 3.94947L15.5002 0.00774262C13.5791 -0.119519 11.913 1.33721 11.7843 3.25771L11.3233 10.1508H3.49073C1.56604 10.1508 0 11.7168 0 13.6415V98.5093C0 100.434 1.56604 102 3.49073 102H48.5991C48.9901 102 49.3774 101.84 49.6547 101.564L56.4642 94.7848C56.5334 94.7995 56.604 94.8113 56.6766 94.8161L68.3022 95.5936C70.1576 95.7161 71.8936 94.2069 72.0181 92.3437L77.6816 7.6656C77.8091 5.76505 76.332 4.07653 74.4317 3.94947ZM50.0951 96.883V86.4906C50.0951 86.2157 50.3189 85.9919 50.5938 85.9919H60.9463L50.0951 96.883ZM69.0326 92.1442C68.9839 92.4454 68.807 92.6002 68.502 92.6083L59.2705 91.9908L65.6041 85.6853C65.8862 85.4047 66.0448 85.0231 66.0448 84.6252V13.6417C66.0448 11.717 64.4787 10.151 62.554 10.151H46.9968C45.0625 10.151 45.0625 13.143 46.9968 13.143H62.554C62.8291 13.143 63.0527 13.3669 63.0527 13.6417V82.9999H50.5938C48.6691 82.9999 47.1031 84.5659 47.1031 86.4906V99.0079H3.49073C3.21586 99.0079 2.99205 98.7841 2.99205 98.5093V13.6417C2.99205 13.3669 3.21586 13.143 3.49073 13.143H39.0299C40.9642 13.143 40.9642 10.151 39.0299 10.151H14.322L14.7696 3.45758C14.8182 3.15618 14.9952 3.00159 15.3004 2.99341L74.2318 6.93494C74.5332 6.98361 74.688 7.16054 74.6962 7.46573L69.0326 92.1442Z" fill="#C6A557"/>
<path d="M53.4235 47.2195H12.6213C11.7951 47.2195 11.1252 47.8894 11.1252 48.7156C11.1252 49.5418 11.7951 50.2116 12.6213 50.2116H53.4235C54.2499 50.2116 54.9195 49.5418 54.9195 48.7156C54.9195 47.8894 54.2499 47.2195 53.4235 47.2195Z" fill="#C6A557"/>
<path d="M53.4235 57.6488H12.6213C11.7951 57.6488 11.1252 58.3186 11.1252 59.1448C11.1252 59.971 11.7951 60.6409 12.6213 60.6409H53.4235C54.2499 60.6409 54.9195 59.971 54.9195 59.1448C54.9195 58.3186 54.2499 57.6488 53.4235 57.6488Z" fill="#C6A557"/>
<path d="M11.1252 38.2862C11.1252 39.1125 11.7951 39.7823 12.6213 39.7823H53.4235C54.2499 39.7823 54.9195 39.1125 54.9195 38.2862C54.9195 37.46 54.2499 36.7902 53.4235 36.7902H12.6213C11.7951 36.7902 11.1252 37.46 11.1252 38.2862Z" fill="#C6A557"/>
<path d="M18.3127 27.857C18.3127 28.6832 18.9826 29.353 19.8088 29.353H46.236C47.0622 29.353 47.732 28.6832 47.732 27.857C47.732 27.0308 47.0622 26.361 46.236 26.361H19.8088C18.9826 26.361 18.3127 27.0308 18.3127 27.857Z" fill="#C6A557"/>
<path d="M38.8477 87.4606C36.157 87.4678 33.4664 87.4736 30.7757 87.4777C29.8713 87.4791 28.9671 87.4803 28.0629 87.4809C26.4243 87.4821 25.3202 87.1532 24.9532 85.3508C24.6428 83.8268 22.4869 84.0317 22.0681 85.3508C21.0328 88.6095 19.3206 87.3327 18.3615 85.1408C17.4046 82.954 17.1593 80.5065 16.7414 78.1792C16.4342 76.4692 13.8479 76.9485 13.8028 78.577C13.7434 80.7215 13.5431 82.8319 12.9987 84.9118C12.4372 87.0577 11.5957 89.12 10.7603 91.1703C10.032 92.9578 12.9279 93.7267 13.6454 91.9658C14.3857 90.1491 15.1269 88.3223 15.6786 86.4377C16.7039 88.9032 18.8251 91.6918 21.8476 90.0483C22.4099 89.7425 22.9351 89.3079 23.3961 88.801C24.9679 90.6174 27.3075 90.4742 29.4967 90.4716C32.6138 90.4676 35.731 90.4608 38.8481 90.4526C40.7728 90.4477 40.7764 87.4556 38.8477 87.4606Z" fill="#C6A557"/>
<path d="M100.918 49.093C100.141 48.3194 99.0721 47.9227 97.987 47.8934L96.8564 47.8989V45.7608C96.8564 44.4585 96.0828 43.0825 94.9748 42.3974V39.3858C94.9748 33.1884 85.326 33.2153 85.326 39.4149V42.4269C84.1972 43.1246 83.44 44.3699 83.44 45.7883V47.9789C78.4601 48.318 78.4459 55.9069 83.4456 56.2035C83.4775 62.9007 83.4759 69.4882 83.44 76.2975C83.4303 78.1753 86.4219 78.2854 86.4321 76.3133C86.468 69.4982 86.4696 62.9049 86.4379 56.2021L93.8604 56.1652C93.8604 56.1652 93.8508 78.276 93.8508 88.2368C93.8508 93.0915 86.4267 93.1238 86.4267 88.1863L86.4293 85.4582C86.546 83.5273 83.5595 83.3472 83.4426 85.2778V87.8378C83.4426 90.032 84.1212 91.8903 85.4349 93.1974C85.5518 96.3277 86.8707 99.3566 89.099 101.566C89.7383 102.201 90.6233 102.007 91.2421 101.53C93.5091 99.2591 94.7865 96.2653 94.8663 93.0697C95.8539 92.0862 96.8426 91.0958 96.8426 87.7048L96.8438 74.0708C99.431 74.8067 102.129 72.8046 102.129 70.0922V52.0058C102.129 50.9042 101.699 49.8697 100.918 49.093ZM86.4321 47.9506V45.7881C86.4321 45.3455 86.7359 44.9743 87.1448 44.864L93.1339 44.8343C93.3014 44.8758 93.456 44.955 93.5813 45.0798C93.7638 45.2615 93.8643 45.5033 93.8643 45.7608V47.9139L86.4321 47.9506ZM90.1564 37.5782C91.0748 37.5782 91.9825 38.4786 91.9825 39.3858V41.8125L88.3179 41.8307V39.4149C88.3181 38.407 89.1423 37.5831 90.1564 37.5782ZM90.1542 98.1973C89.4586 97.2115 88.9556 96.0967 88.6747 94.9248C89.1379 95.0251 89.607 95.0774 90.0764 95.0774C90.6004 95.0774 91.1242 95.0124 91.64 94.8865C91.366 96.0762 90.8637 97.1978 90.1542 98.1973ZM99.1365 70.0922C99.1365 71.5086 96.8522 71.6201 96.8522 70.1183C96.8522 70.1183 96.8548 55.9611 96.8564 54.6634C96.8574 53.8264 96.1616 53.1655 95.3488 53.1655L83.7019 53.2234C82.2574 53.2234 82.2911 50.9632 83.7167 50.9562L98.0017 50.8854C98.6925 50.9442 99.0707 51.3179 99.1363 52.0058V70.0922H99.1365Z" fill="#C6A557"/>
</svg>
