<svg width="55" height="55" viewBox="0 0 55 55" fill="none" xmlns="http://www.w3.org/2000/svg">
<path d="M41.2063 0H13.75C6.19841 0 0 6.19841 0 13.7937V41.25C0 48.8016 6.19841 55 13.75 55H41.2063C48.8016 55 55 48.8016 55 41.2063V13.7937C55 6.19841 48.8016 0 41.2063 0ZM30.25 35.1389C28.0675 35.1389 25.9722 34.004 25.2738 32.6944C25.2738 32.6944 24.0952 37.2341 23.8333 38.1071C22.9603 41.2064 20.3413 44.3056 20.1667 44.5675C20.0357 44.7421 19.7302 44.6984 19.6865 44.4365C19.6429 44.0437 18.9881 40.1151 19.7302 36.9286C20.123 35.3135 22.3492 26.1905 22.3492 26.1905C22.3492 26.1905 21.6944 24.9246 21.6944 23.0913C21.6944 20.1667 23.4405 17.9841 25.623 17.9841C27.4564 17.9841 28.373 19.3373 28.373 20.9524C28.373 22.7421 27.1944 25.4484 26.5833 27.9365C26.0595 30.0317 27.6746 31.7341 29.8135 31.7341C33.6548 31.7341 36.2738 26.9325 36.2738 21.2579C36.2738 16.9365 33.2619 13.7063 27.8056 13.7063C21.6508 13.7063 17.7659 18.1587 17.7659 23.1349C17.7659 24.8373 18.2897 26.0595 19.119 27.0198C19.5119 27.4564 19.5556 27.631 19.4246 28.1111C19.3373 28.4603 19.119 29.3333 18.9881 29.6825C18.8571 30.1627 18.4206 30.381 17.9841 30.1627C15.1468 29.0278 13.8373 26.0159 13.8373 22.6111C13.8373 17.0238 18.7262 10.3016 28.373 10.3016C36.1429 10.3016 41.25 15.7579 41.25 21.6071C41.2063 29.377 36.7976 35.1389 30.25 35.1389Z" fill="white"/>
</svg>
