<svg width="102" height="96" viewBox="0 0 102 96" fill="none" xmlns="http://www.w3.org/2000/svg">
<path d="M47.3316 52.3926C47.1429 52.3542 46.9493 52.3473 46.7581 52.3742C44.8424 52.1643 43.3972 50.6388 43.394 48.8242C43.394 47.9546 42.6448 47.2495 41.7209 47.2495C40.7969 47.2495 40.0478 47.9546 40.0478 48.8242C40.0527 51.8544 42.2061 54.5086 45.3105 55.3105V56.8852C45.3105 57.7548 46.0596 58.4599 46.9836 58.4599C47.9076 58.4599 48.6567 57.7548 48.6567 56.8852V55.4059C52.2398 54.7 54.6751 51.5591 54.2985 48.1322C53.9211 44.7053 50.8535 42.1011 47.1927 42.1003C45.0948 42.1003 43.394 40.4995 43.394 38.525C43.394 36.5505 45.0948 34.9497 47.1927 34.9497C49.2906 34.9497 50.9915 36.5505 50.9915 38.525C50.9915 39.3946 51.7407 40.0997 52.6646 40.0997C53.5886 40.0997 54.3377 39.3946 54.3377 38.525C54.3328 35.3434 51.9645 32.5992 48.6567 31.9426V30.5094C48.6567 29.6398 47.9076 28.9347 46.9836 28.9347C46.0596 28.9347 45.3105 29.6398 45.3105 30.5094V32.0387C41.8581 32.926 39.636 36.0807 40.1115 39.4192C40.587 42.7577 43.6137 45.2497 47.1927 45.2489C49.2629 45.2489 50.9515 46.809 50.9891 48.7566C51.0275 50.7041 49.4001 52.3219 47.3316 52.3926Z" fill="#C6A557"/>
<path d="M22.9312 43.7957C22.9312 56.407 33.7932 66.6301 47.1926 66.6301C60.5921 66.6301 71.4541 56.407 71.4541 43.7957C71.4541 31.1845 60.5921 20.9614 47.1926 20.9614C33.7997 20.9752 22.9467 31.1906 22.9312 43.7957ZM47.1926 24.1107C58.7442 24.1107 68.108 32.9237 68.108 43.7957C68.108 54.6678 58.7442 63.4807 47.1926 63.4807C35.6411 63.4807 26.2773 54.6678 26.2773 43.7957C26.2904 32.9291 35.6468 24.123 47.1926 24.1107Z" fill="#C6A557"/>
<path d="M79.7019 70.5122L66.5957 76.3403C64.7862 73.1725 61.315 71.1565 57.495 71.055L45.3961 70.7421C43.4804 70.6905 41.6006 70.2338 39.8973 69.4057L38.6662 68.8052C32.3627 65.7128 24.8493 65.7205 18.5523 68.8252L18.6291 66.2003C18.6544 65.3306 17.9265 64.6064 17.0025 64.5825L3.73542 64.2388C2.81146 64.215 2.04272 64.9001 2.01739 65.7697L1.21597 93.1712C1.19065 94.0408 1.91854 94.7651 2.8425 94.7889L16.1096 95.1326H16.1554C17.0622 95.1326 17.804 94.4537 17.8285 93.601L17.8669 92.2901L21.3135 90.5532C22.6664 89.8681 24.248 89.7051 25.7258 90.0987L46.3078 95.5355C46.3438 95.5455 46.3797 95.5532 46.4165 95.5609C47.9041 95.8539 49.4204 96.0007 50.9399 95.9999C54.1586 96.0015 57.3398 95.3487 60.2653 94.0847C60.3372 94.0539 60.4066 94.0178 60.4728 93.977L90.3148 75.8098C91.0582 75.3569 91.2984 74.4381 90.863 73.7123C88.6474 70.0124 83.7335 68.603 79.7019 70.5122ZM4.60709 91.6842L5.3162 67.4305L15.2379 67.6873L14.5288 91.9418L4.60709 91.6842ZM58.758 91.2721C55.1234 92.816 51.0641 93.242 47.1574 92.4907L26.631 87.0678C24.3207 86.4535 21.8478 86.708 19.7344 87.7775L17.9731 88.6655L18.4444 72.5397C24.0258 69.0459 31.1838 68.6868 37.1279 71.6017L38.359 72.2022C40.5108 73.2479 42.884 73.8245 45.3046 73.8906L57.4043 74.2036C60.8028 74.2958 63.6891 76.5733 64.3786 79.7073L46.356 79.239C45.4321 79.2152 44.6633 79.901 44.6372 80.7699C44.6119 81.6395 45.3406 82.3638 46.2637 82.3876L66.153 82.9027H66.1995C67.1055 82.902 67.8465 82.2231 67.871 81.3711C67.8914 80.6868 67.8375 80.0017 67.7092 79.3282L81.152 73.3501C81.1651 73.3447 81.1781 73.3386 81.1912 73.3324C83.0979 72.4244 85.4033 72.7281 86.9719 74.0944L58.758 91.2721Z" fill="#C6A557"/>
<path d="M48.8657 16.5341V1.57468C48.8657 0.705068 48.1166 0 47.1926 0C46.2687 0 45.5195 0.705068 45.5195 1.57468V16.5341C45.5195 17.4037 46.2687 18.1088 47.1926 18.1088C48.1166 18.1088 48.8657 17.4037 48.8657 16.5341Z" fill="#C6A557"/>
<path d="M61.4141 16.5341V9.44803C61.4141 8.57842 60.6649 7.87335 59.741 7.87335C58.817 7.87335 58.0679 8.57842 58.0679 9.44803V16.5341C58.0679 17.4037 58.817 18.1088 59.741 18.1088C60.6649 18.1088 61.4141 17.4037 61.4141 16.5341Z" fill="#C6A557"/>
<path d="M36.3176 16.5341V9.44803C36.3176 8.57842 35.5685 7.87335 34.6445 7.87335C33.7206 7.87335 32.9714 8.57842 32.9714 9.44803V16.5341C32.9714 17.4037 33.7206 18.1088 34.6445 18.1088C35.5685 18.1088 36.3176 17.4037 36.3176 16.5341Z" fill="#C6A557"/>
</svg>
