<svg width="74" height="74" viewBox="0 0 74 74" fill="none" xmlns="http://www.w3.org/2000/svg">
<path d="M37 0C16.5973 0 0 16.5973 0 37C0 43.9603 1.93396 50.717 5.60265 56.5844C4.14115 61.7046 1.50135 71.3901 1.47288 71.4911C1.33627 71.992 1.48285 72.5271 1.85712 72.8871C2.23138 73.2472 2.77215 73.3753 3.26454 73.2244L17.9308 68.7133C23.6757 72.1742 30.2546 74 37 74C57.4027 74 74 57.4027 74 37C74 16.5973 57.4027 0 37 0ZM37 71.1538C30.5691 71.1538 24.3047 69.3565 18.8828 65.9582C18.6537 65.8145 18.3904 65.7419 18.1272 65.7419C17.9863 65.7419 17.8454 65.7632 17.7088 65.8045L4.9025 69.7464C5.84315 66.3125 7.53377 60.1705 8.51427 56.7537C8.62811 56.3581 8.56408 55.9312 8.34065 55.5854C4.74596 50.0539 2.84615 43.6273 2.84615 37C2.84615 18.1684 18.1684 2.84615 37 2.84615C55.8316 2.84615 71.1538 18.1684 71.1538 37C71.1538 55.8316 55.8316 71.1538 37 71.1538Z" fill="#C6A557"/>
<path d="M61.1711 45.7177C58.5441 44.2591 56.307 42.7961 54.6747 41.7288C53.4281 40.9148 52.5273 40.3271 51.867 39.9955C50.0213 39.0748 48.6224 39.7251 48.0901 40.2631C48.0233 40.3299 47.9635 40.4025 47.9123 40.4794C45.9954 43.3554 43.4922 46.1062 42.7593 46.2542C41.9126 46.1219 37.9493 43.8691 34.0102 40.5889C29.9886 37.2376 27.4584 34.0286 27.087 31.8427C29.667 29.1873 30.5963 27.5166 30.5963 25.6153C30.5963 23.6558 26.0253 15.4745 25.1985 14.6477C24.3689 13.8194 22.5004 13.6899 19.6443 14.2592C19.3696 14.3147 19.1163 14.4499 18.9171 14.6477C18.5713 14.9935 10.4796 23.2431 14.3248 33.2416C18.5456 44.2149 29.3795 56.97 43.1919 59.042C44.7616 59.2768 46.233 59.3935 47.6106 59.3935C55.7363 59.3935 60.5321 55.305 61.8826 47.1949C61.9836 46.6014 61.6976 46.0094 61.1711 45.7177ZM43.6146 56.2271C29.0081 54.037 19.8079 39.5658 16.9817 32.2198C14.1782 24.9337 19.3483 18.4373 20.6461 16.9687C21.702 16.7894 22.8135 16.714 23.2774 16.7866C24.2465 18.1342 27.6021 24.474 27.7501 25.6153C27.7501 26.3624 27.5068 27.4027 24.6094 30.3015C24.3418 30.5676 24.1924 30.9291 24.1924 31.3076C24.1924 38.7589 39.9089 49.0961 42.6924 49.0961C45.1131 49.0961 48.2695 45.0275 50.0668 42.3763C50.1707 42.3806 50.3457 42.4162 50.5948 42.5414C51.1071 42.799 51.9951 43.3782 53.1179 44.1125C54.6007 45.0816 56.5703 46.3681 58.8956 47.7015C57.8396 52.7819 54.8882 57.9206 43.6146 56.2271Z" fill="#C6A557"/>
</svg>
