<svg width="53" height="53" viewBox="0 0 53 53" fill="none" xmlns="http://www.w3.org/2000/svg">
<path d="M49.9766 2.90918C48.0377 0.969848 45.7018 0 42.9705 0H9.91616C7.18486 0 4.84888 0.969848 2.90918 2.90918C0.969848 4.84888 0 7.18474 0 9.91616V42.9701C0 45.7013 0.969848 48.0374 2.90918 49.9771C4.84888 51.9168 7.18486 52.8866 9.91616 52.8866H42.9701C45.7014 52.8866 48.0374 51.9168 49.9762 49.9771C51.9159 48.0374 52.8858 45.7014 52.8858 42.9701V9.91616C52.8857 7.18474 51.9158 4.84852 49.9766 2.90918ZM31.2294 7.64325H33.5365V17.0082C33.5365 17.5593 33.5472 17.8578 33.5702 17.9037C33.5934 18.2711 33.7775 18.4545 34.1216 18.4545C34.5806 18.4545 35.0631 18.099 35.5677 17.3874V7.64325H37.8747V20.3828H35.5677H35.5668V19.005C34.6258 20.0377 33.7423 20.5547 32.9161 20.5547C32.1819 20.5547 31.6883 20.245 31.4354 19.6251C31.2974 19.2122 31.2294 18.5807 31.2294 17.7313V7.64325ZM22.5183 11.7752C22.5183 10.444 22.7593 9.44522 23.2414 8.77976C23.861 7.9076 24.756 7.47128 25.9266 7.47128C27.0517 7.47128 27.9471 7.90796 28.6121 8.77976C29.0945 9.44534 29.3355 10.444 29.3355 11.7752V16.2514C29.3355 17.6288 29.0945 18.6273 28.6121 19.2469C27.9471 20.1196 27.0517 20.5557 25.9266 20.5557C24.756 20.5557 23.861 20.1192 23.2414 19.2469C22.7593 18.5812 22.5183 17.5827 22.5183 16.2514V11.7752ZM16.3203 3.27049L18.1453 9.98502L19.9012 3.27049H22.4837L19.3847 13.4622H19.3851V20.3828H16.8373V13.4622C16.5845 12.1998 16.0566 10.3864 15.2533 8.02229C14.7255 6.43836 14.4614 5.64639 14.4614 5.64639L13.6347 3.27049H16.3203ZM44.6924 44.8297C44.4629 45.8162 43.975 46.6539 43.2284 47.3432C42.483 48.0316 41.6169 48.4335 40.6295 48.5487C37.4852 48.8925 32.7559 49.0649 26.4439 49.0649C20.1313 49.0649 15.4028 48.8924 12.2582 48.5487C11.2713 48.4335 10.4049 48.0316 9.65868 47.3432C8.91266 46.6539 8.42509 45.8162 8.19547 44.8297C7.73659 42.9012 7.5071 39.9169 7.5071 35.8774C7.5071 31.9055 7.73659 28.9225 8.19547 26.925C8.42521 25.915 8.91278 25.0713 9.65868 24.3939C10.4049 23.7165 11.2827 23.3205 12.2928 23.2059C15.4141 22.8611 20.1313 22.6893 26.4439 22.6893C32.7795 22.6893 37.5082 22.8616 40.6295 23.2059C41.6169 23.3208 42.4879 23.7164 43.2457 24.3939C44.0034 25.071 44.4975 25.9145 44.7268 26.925C45.1622 28.8301 45.3806 31.814 45.3806 35.8774C45.3807 39.9168 45.1511 42.9006 44.6924 44.8297Z" fill="white"/>
<path d="M10.3291 29.5082H13.0148V44.0724H15.5627V29.5082H18.3173V27.0979H10.3291V29.5082Z" fill="white"/>
<path d="M22.9313 41.0771C22.4263 41.7881 21.9441 42.144 21.4852 42.144C21.1638 42.144 20.9916 41.9719 20.9687 41.6278C20.9456 41.5819 20.934 41.2836 20.934 40.7322V31.4355H18.6616V41.4206C18.6616 42.293 18.7306 42.9128 18.8684 43.2793C19.0749 43.9224 19.5572 44.2434 20.3145 44.2434C21.1638 44.2434 22.0361 43.7271 22.9313 42.6941V44.0718H25.2378V31.4364H22.9313V41.0771Z" fill="white"/>
<path d="M31.8494 31.2637C31.023 31.2637 30.2423 31.7227 29.5085 32.6413V27.0979H27.2014V44.0724H29.5085V42.8328C30.2653 43.7737 31.0467 44.2441 31.8494 44.2441C32.7908 44.2441 33.3987 43.7621 33.6735 42.7981C33.8344 42.316 33.9145 41.4782 33.9145 40.2847V35.2579C33.9145 34.0412 33.8336 33.1918 33.6735 32.7098C33.3986 31.7457 32.7906 31.2637 31.8494 31.2637ZM31.6426 40.4572C31.6426 41.5818 31.3099 42.1434 30.6439 42.1443C30.2544 42.1443 29.8749 41.9604 29.5076 41.593V33.8803C29.8749 33.5139 30.2542 33.3299 30.6439 33.3299C31.3099 33.3299 31.6426 33.9031 31.6426 35.051V40.4572Z" fill="white"/>
<path d="M40.215 40.4398C40.215 40.6808 40.209 40.8698 40.1984 41.0077C40.1872 41.1456 40.1809 41.226 40.1809 41.2487C40.0435 41.845 39.6989 42.1434 39.148 42.1434C38.3675 42.1434 37.9771 41.5581 37.9771 40.3877V38.15H42.5566V35.5327C42.5566 34.2017 42.316 33.2149 41.8336 32.5719C41.2145 31.6999 40.3189 31.2632 39.148 31.2632C37.9771 31.2632 37.0594 31.6998 36.3932 32.5719C35.9342 33.1918 35.7048 34.1794 35.7048 35.5327V39.9746C35.7048 41.329 35.9458 42.3163 36.4278 42.9362C37.0939 43.8083 38.0233 44.2449 39.2174 44.2449C40.434 44.2449 41.3518 43.7859 41.9722 42.8673C42.2474 42.4538 42.4203 41.9949 42.4888 41.4901C42.5343 41.1686 42.5573 40.675 42.5573 40.0094V39.7003V39.6995H40.2157V40.44H40.215V40.4398ZM37.978 35.0854C37.978 33.915 38.3569 33.3298 39.1143 33.3298C39.872 33.3298 40.2504 33.915 40.2504 35.0854V36.2567H37.978V35.0854Z" fill="white"/>
<path d="M25.9266 18.455C26.6612 18.455 27.0283 17.8699 27.0283 16.6993V11.3279C27.0283 10.1346 26.6612 9.53735 25.9266 9.53735C25.1922 9.53735 24.825 10.1346 24.825 11.3279V16.6993C24.825 17.8696 25.1922 18.455 25.9266 18.455Z" fill="white"/>
</svg>
